<svg xmlns="http://www.w3.org/2000/svg" viewBox="0 0 1200 700" role="img" aria-label="無名的黎明：晨光灑落茶館，沒有名字的女孩與陌生人重逢">
<defs><linearGradient id="sky" x2=".6" y2="1"><stop stop-color="#385665"/><stop offset=".47" stop-color="#bc8a79"/><stop offset="1" stop-color="#f9ddb1"/></linearGradient><radialGradient id="sun"><stop stop-color="#fff8db" stop-opacity=".9"/><stop offset="1" stop-color="#ffdfa1" stop-opacity="0"/></radialGradient><linearGradient id="table" x2="0" y2="1"><stop stop-color="#876759"/><stop offset="1" stop-color="#281f26"/></linearGradient><filter id="soft"><feGaussianBlur stdDeviation="8"/></filter></defs>
<rect width="1200" height="700" fill="url(#sky)"/><circle cx="738" cy="282" r="360" fill="url(#sun)"/>
<g fill="#625e61" opacity=".6"><path d="M0 402 160 242 260 374 410 207 560 377 681 277 850 404 1050 208 1200 355V700H0Z"/><path d="M0 445 195 310 360 443 535 284 712 456 924 340 1200 470V700H0Z" opacity=".46"/></g>
<g fill="#473b47" opacity=".83"><path d="M20 490h150v-145l-69-63-81 67zm195 10h163V358l-75-63-88 66zm720-5h222V300l-115-93-107 102z"/><path d="M0 460h1200v190H0z" opacity=".18"/></g>
<g stroke="#c6b9a6" stroke-width="5" fill="none" opacity=".7"><path d="M440 390q155-194 310 0M461 390v150m267-150v150M535 328v212m120-212v212"/></g>
<g opacity=".9"><path d="M0 0h86v700H0zM1102 0h98v700h-98z" fill="#2b202a"/><path d="M74 50Q420 90 610 0M1130 50Q890 100 610 0" stroke="#4e3540" stroke-width="38" fill="none"/><g fill="#ead9ce"><circle cx="150" cy="114" r="17"/><circle cx="232" cy="89" r="13"/><circle cx="316" cy="69" r="20"/><circle cx="965" cy="102" r="17"/><circle cx="855" cy="79" r="14"/><circle cx="774" cy="54" r="20"/></g></g>
<path d="M0 566Q600 528 1200 575V700H0Z" fill="url(#table)"/><path d="M0 568Q600 531 1200 576" stroke="#d6ac85" stroke-width="9" fill="none"/>
<g transform="translate(325 245)"><path d="M-175 320q36-170 145-172 116 25 157 172v150h-300z" fill="#e6d5cb"/><path d="M-83 68Q-123-43-38-63 99-92 94 69l-11 166-57-48-99 5z" fill="#201b25"/><ellipse cx="0" cy="97" rx="65" ry="82" fill="#f2d7c8"/><path d="M-8 100q45-17 78-13" stroke="#8f645a" stroke-width="5" fill="none"/><path d="M-18 165q40 26 68-6" stroke="#b86f73" stroke-width="4" fill="none"/><path d="M-74 165q-45 60-80 190" stroke="#25212b" stroke-width="36" fill="none"/><path d="M-91 79q-10-118 70-132" stroke="#211e29" stroke-width="45" fill="none"/><path d="M-108 60q-38 19-40 66 40-14 58-3" fill="#9e3d58"/></g>
<g transform="translate(885 265)"><path d="M-140 320q30-155 140-176 120 22 155 176V470H-140z" fill="#332b35"/><ellipse cx="0" cy="87" rx="59" ry="76" fill="#edd0bc"/><path d="M-74 51q10-122 92-111 82 14 62 111l-28-50-30 18-64 3z" fill="#dad0c7"/><path d="M-50 97q25-15 52-5M23 91q25-15 50 0" stroke="#805850" stroke-width="4" fill="none"/><path d="M-16 157q25 15 44-3" stroke="#a26a70" stroke-width="4" fill="none"/><path d="M-130 300q40-110 118-106 90 0 130 108" fill="#3b303a" stroke="#ad9274" stroke-width="5"/></g>
<g fill="#f3d5a3" stroke="#8b6b54" stroke-width="6"><path d="M515 544h78l-8 50h-64z"/><ellipse cx="554" cy="544" rx="43" ry="11"/><path d="M594 552q24 4 11 27-10 16-19 2" fill="none"/><path d="M625 550h70l-8 45h-57z"/><ellipse cx="660" cy="550" rx="40" ry="10"/></g>
<g opacity=".7" fill="#fff2d5"><circle cx="160" cy="206" r="5"/><circle cx="225" cy="235" r="8"/><circle cx="1000" cy="210" r="6"/><circle cx="1070" cy="295" r="8"/><circle cx="690" cy="150" r="7"/><circle cx="799" cy="145" r="5"/></g>
</svg>